# xmcd CD database file
#
# Track frame offsets:
#	150
#	12375
#	24807
#	40820
#	63622
#	74780
#	86422
#	100735
#	113417
#	121697
#
# Disc length: 1796 seconds
#
# Revision: 2
# Processed by: cddbd v1.5.2PL0 Copyright (c) Steve Scherf et al.
# Submitted via: CDex 1.51
#
DISCID=7607020a
DTITLE=Elmore James - I Need You
DYEAR=1900
DGENRE=Blues
TTITLE0=Make My Dreams Come True
TTITLE1=Got To Move
TTITLE2=I Need You
TTITLE3=Something Inside Of Me
TTITLE4=Look On Yonder Wall
TTITLE5=Shake Your Money Maker
TTITLE6=Strange Angels
TTITLE7=Early One Morning
TTITLE8=She Done Moved
TTITLE9=Baby Please Don't Go
EXTD=
EXTT0=
EXTT1=
EXTT2=
EXTT3=
EXTT4=
EXTT5=
EXTT6=
EXTT7=
EXTT8=
EXTT9=
PLAYORDER=
